# xmcd
#
# Track frame offsets: 
#        150
#        23155
#        46017
#        69586
#        96342
#        119268
#        141468
#        174330
#        206950
#        227875
#
# Disc length: 3486 seconds
#
# Revision: 0
# Processed by: cddbd v1.5.2PL0 Copyright (c) Steve Scherf et al.
# Submitted via: ExactAudioCopy v1.1
#
DISCID=8e0d9c0a
DTITLE=Jack De Keyzer - Voodoo Boogie
DYEAR=2014
DGENRE=Blues
TTITLE0=Voodoo Boogie
TTITLE1=If You Were My Woman
TTITLE2=C.O.D.
TTITLE3=All Along The Watchtower
TTITLE4=Pleasure Is My Business
TTITLE5=I Heard It Through The Grapevine
TTITLE6=Rock Till We Drop
TTITLE7=You Shook Me
TTITLE8=Shake Your Money Maker
TTITLE9=Cinderella
EXTD=
EXTT0=
EXTT1=
EXTT2=
EXTT3=
EXTT4=
EXTT5=
EXTT6=
EXTT7=
EXTT8=
EXTT9=
PLAYORDER=
